<svg width="443" height="48" viewBox="0 0 443 48" fill="none" xmlns="http://www.w3.org/2000/svg">
<g clip-path="url(#clip0_624_37)">
<g clip-path="url(#clip1_624_37)">
<path d="M93.75 0H68.25C62.0368 0 57 5.0368 57 11.25V36.75C57 42.9632 62.0368 48 68.25 48H93.75C99.9632 48 105 42.9632 105 36.75V11.25C105 5.0368 99.9632 0 93.75 0Z" fill="#242938"/>
<path d="M76.0564 34.2414C76.0564 34.2414 74.6165 35.1178 77.0586 35.3684C80.0076 35.7442 81.5668 35.6814 84.8224 35.0557C84.8224 35.0557 85.6988 35.6199 86.8886 36.0577C79.5621 39.1882 70.2954 35.8698 76.0564 34.2414ZM75.1172 30.1717C75.1172 30.1717 73.5516 31.3616 75.9936 31.6115C79.1863 31.9244 81.6919 31.9873 86.0123 31.1114C86.0123 31.1114 86.5764 31.7379 87.5151 32.0508C78.687 34.6805 68.7933 32.3008 75.1172 30.1723V30.1717ZM92.3991 37.3098C92.3991 37.3098 93.4633 38.1862 91.2092 38.8754C87.0137 40.1276 73.6145 40.5039 69.8575 38.8754C68.5433 38.3113 71.0474 37.4969 71.861 37.3726C72.6752 37.1848 73.1131 37.1848 73.1131 37.1848C71.6732 36.1828 63.533 39.251 68.9805 40.1339C83.9454 42.5765 96.2811 39.0697 92.3985 37.3162L92.3991 37.3098ZM76.7451 25.9134C76.7451 25.9134 69.9197 27.5418 74.3024 28.1047C76.1809 28.3546 79.875 28.2926 83.319 28.0419C86.1368 27.7918 88.9609 27.2906 88.9609 27.2906C88.9609 27.2906 87.9587 27.7289 87.2702 28.1669C80.3141 29.9844 66.977 29.1703 70.7968 27.2917C74.0536 25.7261 76.7451 25.9134 76.7451 25.9134ZM88.9543 32.7386C95.9681 29.1067 92.7113 25.6004 90.4571 26.039C89.8929 26.1641 89.643 26.2891 89.643 26.2891C89.643 26.2891 89.8307 25.9134 90.2693 25.7891C94.7147 24.2234 98.2217 30.4852 88.8294 32.9272C88.8294 32.9272 88.8923 32.8644 88.9543 32.7393V32.7386ZM77.4336 42.6311C84.1961 43.0696 94.5276 42.3809 94.7783 39.1869C94.7783 39.1869 94.2782 40.439 89.2058 41.3784C83.4454 42.4426 76.3065 42.3176 72.1117 41.6283C72.1117 41.6283 72.9881 42.3796 77.4341 42.6303L77.4336 42.6311Z" fill="white"/>
<path d="M84.6909 5.25C84.6909 5.25 88.5729 9.19478 80.9968 15.1424C74.9229 19.9635 79.6184 22.719 80.9968 25.8489C77.4277 22.6562 74.8614 19.8379 76.6136 17.208C79.187 13.328 86.2616 11.4496 84.6909 5.25ZM82.6874 23.2204C84.503 25.2866 82.1874 27.1652 82.1874 27.1652C82.1874 27.1652 86.8207 24.7866 84.6922 21.8426C82.7508 19.0249 81.2482 17.6472 89.3883 12.9504C89.3883 12.9504 76.5521 16.1432 82.6888 23.2191L82.6874 23.2204Z" fill="#F58219"/>
</g>
<g clip-path="url(#clip2_624_37)">
<path d="M150 0H124.5C118.287 0 113.25 5.0368 113.25 11.25V36.75C113.25 42.9632 118.287 48 124.5 48H150C156.213 48 161.25 42.9632 161.25 36.75V11.25C161.25 5.0368 156.213 0 150 0Z" fill="#242938"/>
<path d="M152.54 32.2165C147.924 38.3659 138.065 36.2901 131.744 36.5886C131.744 36.5886 130.625 36.6508 129.498 36.8365C129.498 36.8365 129.924 36.6546 130.468 36.4673C134.907 34.932 137.005 34.6236 139.703 33.238C144.771 30.6415 149.816 24.9861 150.842 19.111C148.913 24.7615 143.045 29.6246 137.703 31.5994C134.046 32.9488 127.433 34.2621 127.432 34.2626C127.435 34.2673 127.168 34.1243 127.165 34.1211C122.667 31.933 122.537 22.1923 130.706 19.0525C134.287 17.6749 137.712 18.4316 141.584 17.5101C145.713 16.5283 150.495 13.4333 152.439 9.38683C154.618 15.8503 157.236 25.9626 152.54 32.2165ZM152.62 7.38394C152.071 8.68933 151.4 9.86565 150.627 10.9178C147.224 7.42573 142.475 5.25 137.226 5.25C126.9 5.25 118.5 13.6507 118.5 23.9749C118.5 29.3871 120.81 34.2683 124.493 37.6898L124.903 38.053C124.219 37.4946 124.113 36.489 124.668 35.8035C125.227 35.1178 126.233 35.0115 126.918 35.5669C127.605 36.1234 127.71 37.1316 127.154 37.8182C126.6 38.5052 125.591 38.6089 124.905 38.0546L125.184 38.3018C128.442 41.0449 132.642 42.7018 137.226 42.7018C147.096 42.7018 155.2 35.0209 155.894 25.3262C156.408 20.5795 155.006 14.552 152.62 7.38394Z" fill="#5FB832"/>
</g>
<g clip-path="url(#clip3_624_37)">
<path d="M206.25 0H180.75C174.537 0 169.5 5.0368 169.5 11.25V36.75C169.5 42.9632 174.537 48 180.75 48H206.25C212.463 48 217.5 42.9632 217.5 36.75V11.25C217.5 5.0368 212.463 0 206.25 0Z" fill="#023430"/>
<path d="M201.595 20.1733C199.619 11.4581 195.502 9.13794 194.451 7.49786C194.018 6.77537 193.634 6.02436 193.303 5.25C193.247 6.02422 193.145 6.51201 192.487 7.09912C191.166 8.27726 185.554 12.8504 185.082 22.7528C184.642 31.9856 191.869 37.6787 192.824 38.2673C193.558 38.6286 194.453 38.2749 194.889 37.9432C198.373 35.5522 203.133 29.1776 201.599 20.1733" fill="#10AA50"/>
<path d="M193.602 33.3516C193.42 35.6368 193.29 36.9647 192.828 38.2706C192.828 38.2706 193.131 40.4462 193.344 42.7507H194.098C194.278 41.1279 194.552 39.5169 194.92 37.926C193.944 37.446 193.64 35.3569 193.602 33.3516Z" fill="#B8C4C2"/>
<path d="M194.918 37.9257C193.932 37.4703 193.647 35.3371 193.603 33.35C193.847 30.0719 193.918 26.7834 193.816 23.4978C193.765 21.7739 193.841 7.53059 193.392 5.44531C193.699 6.15159 194.053 6.83658 194.451 7.49576C195.502 9.13713 199.62 11.4572 201.595 20.1725C203.133 29.1614 198.398 35.5192 194.918 37.9257Z" fill="#12924F"/>
</g>
<g clip-path="url(#clip4_624_37)">
<path d="M262.5 0H237C230.787 0 225.75 5.0368 225.75 11.25V36.75C225.75 42.9632 230.787 48 237 48H262.5C268.713 48 273.75 42.9632 273.75 36.75V11.25C273.75 5.0368 268.713 0 262.5 0Z" fill="#2396ED"/>
<path d="M252.223 22.8981H256.107V19.3836H252.223V22.8981ZM247.598 22.8981H251.483V19.3836H247.598V22.8981ZM243.067 22.8981H246.951V19.3836H243.067V22.8981ZM238.535 22.8981H242.327V19.3836H238.535V22.8981ZM233.911 22.8981H237.795V19.3836H233.911V22.8981ZM238.535 18.6437H242.327V15.1293H238.535V18.6437ZM243.067 18.6437H246.951V15.1293H243.067V18.6437ZM247.598 18.6437H251.483V15.1293H247.598V18.6437ZM247.598 14.3894H251.483V10.875H247.598V14.3894ZM268.5 21.3259C268.5 21.3259 266.835 19.7535 263.413 20.3085C263.043 17.6264 260.176 16.0542 260.176 16.0542C260.176 16.0542 257.494 19.2911 259.436 22.8981C258.882 23.1756 257.957 23.5455 256.569 23.5455H231.136C230.674 25.3027 230.674 36.9557 243.437 36.9557C252.593 36.9557 259.436 32.7015 262.673 24.9326C267.483 25.3027 268.5 21.3259 268.5 21.3259Z" fill="white"/>
</g>
<g clip-path="url(#clip5_624_37)">
<path d="M318.75 0H293.25C287.037 0 282 5.0368 282 11.25V36.75C282 42.9632 287.037 48 293.25 48H318.75C324.963 48 330 42.9632 330 36.75V11.25C330 5.0368 324.963 0 318.75 0Z" fill="#242938"/>
<path d="M296.732 34.5005L287.679 27.3219L292.179 18.9648L305.089 24.0005L296.732 34.5005Z" fill="url(#paint0_linear_624_37)"/>
<path d="M324.75 15.2684L324.054 36.9649L309.643 42.7506L300.964 37.1792L313.661 24.0006L308.089 11.8398L313.071 5.83984L324.75 15.2684Z" fill="url(#paint1_linear_624_37)"/>
<path d="M324.75 15.2684L313.339 28.7685L308.089 11.8398L313.071 5.83984L324.75 15.2684Z" fill="url(#paint2_linear_624_37)"/>
<path d="M305.304 36.375L290.25 41.8393L292.661 33.375L295.821 22.9821L287.25 20.0893L292.661 5.25L304.446 6.69643L316.018 19.9286L305.304 36.375Z" fill="url(#paint3_linear_624_37)"/>
<path d="M317.732 12.4824H294.589V35.6253H317.732V12.4824Z" fill="black"/>
<path d="M305.411 31.2852H296.732V32.7315H305.411V31.2852Z" fill="white"/>
<path d="M303 17.2503V15.4824H298.179V17.2503H299.572V23.3039H298.179V25.0716H303V23.3039H301.661V17.2503H303Z" fill="white"/>
<path d="M307.607 25.2325C306.857 25.2325 306.214 25.0716 305.732 24.8039C305.25 24.536 304.821 24.161 304.5 23.786L305.839 22.286C306.107 22.6075 306.375 22.8216 306.643 22.9825C306.911 23.1432 307.232 23.2503 307.554 23.2503C307.929 23.2503 308.25 23.1432 308.518 22.8753C308.732 22.6075 308.839 22.2325 308.839 21.6432V15.4824H310.982V21.7503C310.982 22.3396 310.929 22.8216 310.768 23.2503C310.607 23.6789 310.393 24.0003 310.071 24.3216C309.804 24.5896 309.429 24.8575 309 24.9646C308.571 25.1253 308.143 25.2325 307.607 25.2325Z" fill="white"/>
</g>
<g clip-path="url(#clip6_624_37)">
<path d="M375 0H349.5C343.287 0 338.25 5.0368 338.25 11.25V36.75C338.25 42.9632 343.287 48 349.5 48H375C381.213 48 386.25 42.9632 386.25 36.75V11.25C386.25 5.0368 381.213 0 375 0Z" fill="#242938"/>
<path d="M362.25 5.625C351.896 5.625 343.5 14.0195 343.5 24.3752C343.5 32.6595 348.872 39.6878 356.323 42.1671C357.26 42.3407 357.604 41.7604 357.604 41.2652C357.604 40.818 357.586 39.3411 357.578 37.7743C352.362 38.9085 351.261 35.562 351.261 35.562C350.408 33.3947 349.179 32.8185 349.179 32.8185C347.478 31.6547 349.307 31.6787 349.307 31.6787C351.19 31.8109 352.182 33.6109 352.182 33.6109C353.854 36.4774 356.568 35.6486 357.638 35.1696C357.806 33.9576 358.292 33.1305 358.828 32.6623C354.664 32.1881 350.286 30.5803 350.286 23.3959C350.286 21.3488 351.018 19.6761 352.218 18.363C352.023 17.8908 351.381 15.9837 352.399 13.401C352.399 13.401 353.974 12.8971 357.557 15.323C359.053 14.9075 360.657 14.6992 362.25 14.6921C363.844 14.6992 365.449 14.9075 366.947 15.323C370.526 12.8971 372.098 13.401 372.098 13.401C373.119 15.9837 372.477 17.8908 372.282 18.363C373.484 19.6761 374.212 21.3488 374.212 23.3959C374.212 30.5976 369.826 32.1833 365.65 32.6473C366.323 33.2293 366.922 34.3703 366.922 36.1196C366.922 38.6284 366.9 40.6476 366.9 41.2652C366.9 41.7641 367.238 42.3488 368.188 42.1646C375.634 39.6825 381 32.6567 381 24.3752C381 14.0195 372.605 5.625 362.25 5.625ZM350.523 32.3349C350.481 32.4281 350.335 32.4561 350.201 32.3921C350.065 32.331 349.989 32.2039 350.033 32.1105C350.073 32.0145 350.22 31.9879 350.356 32.0522C350.492 32.1133 350.57 32.2416 350.523 32.3349ZM351.445 33.1579C351.355 33.2409 351.181 33.2023 351.062 33.0713C350.939 32.9406 350.916 32.7658 351.007 32.6816C351.099 32.5988 351.269 32.6376 351.392 32.7683C351.514 32.9006 351.538 33.0741 351.445 33.1579ZM352.078 34.2109C351.963 34.2908 351.775 34.2159 351.659 34.0491C351.544 33.8824 351.544 33.6825 351.661 33.6023C351.778 33.5222 351.963 33.5942 352.08 33.7598C352.195 33.9293 352.195 34.1293 352.078 34.2109ZM353.148 35.4304C353.045 35.5436 352.826 35.5133 352.666 35.3586C352.502 35.2074 352.456 34.9929 352.559 34.8795C352.663 34.7659 352.883 34.7979 353.045 34.9513C353.208 35.1021 353.257 35.3183 353.148 35.4304ZM354.531 35.8419C354.485 35.9889 354.274 36.0557 354.062 35.9933C353.85 35.9289 353.711 35.757 353.754 35.6085C353.798 35.4608 354.01 35.3912 354.224 35.4579C354.436 35.5219 354.575 35.6927 354.531 35.8419ZM356.105 36.0167C356.11 36.1712 355.93 36.2994 355.707 36.3023C355.483 36.3073 355.301 36.1821 355.299 36.03C355.299 35.8738 355.475 35.7469 355.699 35.7431C355.922 35.7388 356.105 35.8629 356.105 36.0167ZM357.651 35.9574C357.677 36.1082 357.523 36.2633 357.301 36.3045C357.083 36.3443 356.882 36.2511 356.854 36.1014C356.827 35.9468 356.985 35.7919 357.202 35.7518C357.424 35.7133 357.623 35.8041 357.651 35.9574Z" fill="white"/>
</g>
<g clip-path="url(#clip7_624_37)">
<path d="M431.25 0H405.75C399.537 0 394.5 5.0368 394.5 11.25V36.75C394.5 42.9632 399.537 48 405.75 48H431.25C437.463 48 442.5 42.9632 442.5 36.75V11.25C442.5 5.0368 437.463 0 431.25 0Z" fill="#5865F2"/>
<mask id="mask0_624_37" style="mask-type:luminance" maskUnits="userSpaceOnUse" x="399" y="9" width="39" height="30">
<path d="M437.25 9.5625H399.75V38.6119H437.25V9.5625Z" fill="white"/>
</mask>
<g mask="url(#mask0_624_37)">
<path d="M431.495 12.1487C429.105 11.052 426.542 10.244 423.862 9.78124C423.814 9.77231 423.765 9.79462 423.74 9.83927C423.41 10.4255 423.045 11.1904 422.789 11.7916C419.907 11.36 417.039 11.36 414.216 11.7916C413.96 11.177 413.582 10.4255 413.251 9.83927C413.226 9.79612 413.177 9.77381 413.128 9.78124C410.45 10.2425 407.887 11.0505 405.495 12.1487C405.475 12.1576 405.457 12.1725 405.445 12.1918C400.583 19.4549 399.252 26.5394 399.905 33.5362C399.908 33.5705 399.927 33.6031 399.954 33.6239C403.161 35.9795 406.268 37.4095 409.318 38.3573C409.366 38.3722 409.418 38.3543 409.449 38.3142C410.171 37.3291 410.814 36.2905 411.365 35.1983C411.397 35.1342 411.366 35.0585 411.3 35.0332C410.28 34.6462 409.309 34.1746 408.375 33.6389C408.301 33.5958 408.295 33.49 408.363 33.4394C408.559 33.292 408.756 33.1388 408.944 32.9842C408.978 32.9558 409.025 32.9498 409.065 32.9677C415.202 35.7697 421.846 35.7697 427.911 32.9677C427.951 32.9483 427.998 32.9543 428.034 32.9827C428.221 33.1373 428.418 33.292 428.616 33.4394C428.684 33.49 428.68 33.5958 428.606 33.6389C427.671 34.1849 426.7 34.6462 425.679 35.0317C425.612 35.057 425.583 35.1342 425.615 35.1983C426.179 36.289 426.821 37.3276 427.529 38.3127C427.559 38.3543 427.612 38.3722 427.661 38.3573C430.725 37.4095 433.832 35.9795 437.04 33.6239C437.068 33.6031 437.086 33.5718 437.089 33.5377C437.87 25.4487 435.779 18.4222 431.544 12.1933C431.534 12.1725 431.516 12.1576 431.495 12.1487ZM412.281 29.276C410.434 29.276 408.911 27.5797 408.911 25.4963C408.911 23.413 410.404 21.7167 412.281 21.7167C414.173 21.7167 415.681 23.428 415.651 25.4963C415.651 27.5797 414.158 29.276 412.281 29.276ZM424.742 29.276C422.894 29.276 421.372 27.5797 421.372 25.4963C421.372 23.413 422.865 21.7167 424.742 21.7167C426.634 21.7167 428.141 23.428 428.112 25.4963C428.112 27.5797 426.634 29.276 424.742 29.276Z" fill="white"/>
</g>
</g>
<g clip-path="url(#clip8_624_37)">
<path d="M37.25 0H11.75C5.5368 0 0.5 5.0368 0.5 11.25V36.75C0.5 42.9632 5.5368 48 11.75 48H37.25C43.4632 48 48.5 42.9632 48.5 36.75V11.25C48.5 5.0368 43.4632 0 37.25 0Z" fill="#242938"/>
<path d="M35.1875 30.8244C35.035 30.3347 34.5831 30.002 34.0704 30.002H32.6715C32.1596 30.002 31.7033 30.3371 31.5552 30.8289L29.0515 39.0226C28.9423 39.3753 29.0092 39.7614 29.2294 40.0586C29.4487 40.3555 29.7979 40.5313 30.1685 40.5313C30.6939 40.5313 31.1533 40.1819 31.2937 39.6767L31.8077 37.8284H34.8234L35.3844 39.7C35.5334 40.1943 35.9887 40.5313 36.5049 40.5313H36.6107C36.9822 40.5313 37.3319 40.3555 37.5509 40.0572C37.7726 39.759 37.8381 39.3717 37.7279 39.017L35.1875 30.8244ZM32.1493 36.0479L32.7759 33.8133C32.9462 33.2035 33.1031 32.4078 33.2599 31.7836H33.2899C33.4469 32.4077 33.6349 33.189 33.8221 33.8133L34.4785 36.0479H32.1493Z" fill="white"/>
<path d="M40.8035 30C40.1448 30 39.6099 30.5353 39.6099 31.1941V39.3364C39.6099 39.9953 40.1448 40.5304 40.8035 40.5304C41.4636 40.5304 41.9999 39.9953 41.9999 39.3364V31.1941C41.9999 30.5353 41.4635 30 40.8035 30Z" fill="white"/>
<path d="M22.4262 21.6687C23.025 21.3592 23.6719 21.989 23.3786 22.5958L21.6561 26.1566C21.2777 26.9396 21.0869 27.8 21.0988 28.6696C21.1107 29.5392 21.325 30.394 21.7246 31.1664L23.5406 34.6784C23.85 35.2771 23.2202 35.924 22.6134 35.6307L19.0526 33.9082C18.2696 33.5298 17.4092 33.339 16.5396 33.3509C15.6701 33.3628 14.8152 33.5771 14.0429 33.9767L10.5309 35.7927C10.4003 35.8609 10.2515 35.8862 10.1057 35.8649C9.95986 35.8436 9.82451 35.7768 9.71893 35.674C9.61335 35.5712 9.54293 35.4377 9.51771 35.2925C9.4925 35.1473 9.51378 34.9979 9.57852 34.8655L11.301 31.3047C11.6794 30.522 11.8703 29.6619 11.8587 28.7926C11.847 27.9233 11.6331 27.0686 11.2339 26.2963L9.41656 22.783C9.34829 22.6524 9.32301 22.5036 9.34433 22.3578C9.36564 22.212 9.43246 22.0766 9.53525 21.971C9.63804 21.8655 9.77154 21.795 9.91673 21.7698C10.0619 21.7446 10.2113 21.7659 10.3437 21.8306L13.9045 23.5531C14.6872 23.9315 15.5473 24.1225 16.4166 24.1108C17.2859 24.0991 18.1406 23.8852 18.9129 23.486L22.4262 21.6687ZM23.9549 9.36891C24.0333 9.32817 24.1226 9.31319 24.21 9.32609C24.2975 9.33899 24.3786 9.37912 24.4419 9.44077C24.5053 9.50243 24.5476 9.58247 24.5628 9.66954C24.578 9.7566 24.5655 9.84625 24.5268 9.92575L23.4936 12.062C23.0337 13.0149 23.0486 14.1273 23.5339 15.0675L24.624 17.1753C24.6648 17.2537 24.6797 17.343 24.6668 17.4304C24.6539 17.5179 24.6138 17.599 24.5522 17.6623C24.4905 17.7257 24.4105 17.768 24.3234 17.7832C24.2363 17.7984 24.1467 17.7859 24.0672 17.7472L21.931 16.714C21.4613 16.4869 20.9451 16.3723 20.4234 16.3793C19.9017 16.3863 19.3889 16.5147 18.9254 16.7543L16.8177 17.8444C16.7392 17.8852 16.6499 17.9001 16.5625 17.8872C16.4751 17.8743 16.3939 17.8342 16.3306 17.7726C16.2673 17.7109 16.225 17.6309 16.2097 17.5438C16.1945 17.4567 16.2071 17.3671 16.2457 17.2876L17.2789 15.1514C17.506 14.6817 17.6207 14.1655 17.6137 13.6438C17.6067 13.1221 17.4783 12.6093 17.2386 12.1458L16.1485 10.0381C16.1078 9.95962 16.0928 9.87034 16.1057 9.7829C16.1186 9.69546 16.1587 9.61431 16.2204 9.55098C16.282 9.48765 16.3621 9.44536 16.4491 9.43012C16.5362 9.41488 16.6259 9.42747 16.7054 9.46609L18.8416 10.4993C19.3113 10.7264 19.8274 10.841 20.3491 10.8341C20.8708 10.8271 21.3837 10.6987 21.8471 10.459L23.9549 9.36891ZM35.1863 17.4667C35.2385 17.4405 35.2975 17.4312 35.3552 17.4401C35.4129 17.449 35.4664 17.4757 35.5083 17.5165C35.5501 17.5572 35.5782 17.6099 35.5887 17.6674C35.5991 17.7248 35.5915 17.7841 35.5667 17.837L34.8788 19.2602C34.5708 19.896 34.5807 20.6384 34.9056 21.2657L35.6315 22.67C35.6576 22.7222 35.6669 22.7812 35.658 22.8389C35.6491 22.8966 35.6224 22.9501 35.5817 22.992C35.5409 23.0338 35.4882 23.0619 35.4307 23.0724C35.3733 23.0828 35.314 23.0752 35.2611 23.0504L33.8379 22.3625C33.5245 22.2107 33.1801 22.1342 32.832 22.1389C32.4838 22.1435 32.1416 22.2293 31.8324 22.3893L30.4281 23.1152C30.3759 23.1413 30.3169 23.1506 30.2592 23.1417C30.2015 23.1328 30.148 23.1061 30.1062 23.0654C30.0643 23.0246 30.0362 22.9719 30.0257 22.9144C30.0153 22.857 30.023 22.7977 30.0477 22.7448L30.7357 21.3216C30.8874 21.0082 30.9639 20.6638 30.9593 20.3157C30.9546 19.9675 30.8688 19.6253 30.7088 19.3161L29.9843 17.9132C29.9582 17.861 29.9489 17.8019 29.9578 17.7442C29.9667 17.6865 29.9934 17.633 30.0341 17.5912C30.0749 17.5494 30.1276 17.5213 30.1851 17.5108C30.2425 17.5003 30.3018 17.508 30.3547 17.5328L31.7779 18.2207C32.4136 18.5287 33.1561 18.5187 33.7834 18.1938L35.1849 17.468L35.1863 17.4667Z" fill="white"/>
</g>
</g>
<defs>
<linearGradient id="paint0_linear_624_37" x1="287.673" y1="26.727" x2="305.099" y2="26.727" gradientUnits="userSpaceOnUse">
<stop offset="0.258" stop-color="#F97A12"/>
<stop offset="0.459" stop-color="#B07B58"/>
<stop offset="0.724" stop-color="#577BAE"/>
<stop offset="0.91" stop-color="#1E7CE5"/>
<stop offset="1" stop-color="#087CFA"/>
</linearGradient>
<linearGradient id="paint1_linear_624_37" x1="301.054" y1="18.5792" x2="329.799" y2="34.4844" gradientUnits="userSpaceOnUse">
<stop stop-color="#F97A12"/>
<stop offset="0.072" stop-color="#CB7A3E"/>
<stop offset="0.154" stop-color="#9E7B6A"/>
<stop offset="0.242" stop-color="#757B91"/>
<stop offset="0.334" stop-color="#537BB1"/>
<stop offset="0.432" stop-color="#387CCC"/>
<stop offset="0.538" stop-color="#237CE0"/>
<stop offset="0.655" stop-color="#147CEF"/>
<stop offset="0.792" stop-color="#0B7CF7"/>
<stop offset="1" stop-color="#087CFA"/>
</linearGradient>
<linearGradient id="paint2_linear_624_37" x1="321.122" y1="28.2409" x2="313.12" y2="4.32957" gradientUnits="userSpaceOnUse">
<stop stop-color="#FE315D"/>
<stop offset="0.078" stop-color="#CB417E"/>
<stop offset="0.16" stop-color="#9E4E9B"/>
<stop offset="0.247" stop-color="#755BB4"/>
<stop offset="0.339" stop-color="#5365CA"/>
<stop offset="0.436" stop-color="#386DDB"/>
<stop offset="0.541" stop-color="#2374E9"/>
<stop offset="0.658" stop-color="#1478F3"/>
<stop offset="0.794" stop-color="#0B7BF8"/>
<stop offset="1" stop-color="#087CFA"/>
</linearGradient>
<linearGradient id="paint3_linear_624_37" x1="292.993" y1="14.0749" x2="316.995" y2="53.775" gradientUnits="userSpaceOnUse">
<stop stop-color="#FE315D"/>
<stop offset="0.04" stop-color="#F63462"/>
<stop offset="0.104" stop-color="#DF3A71"/>
<stop offset="0.167" stop-color="#C24383"/>
<stop offset="0.291" stop-color="#AD4A91"/>
<stop offset="0.55" stop-color="#755BB4"/>
<stop offset="0.917" stop-color="#1D76ED"/>
<stop offset="1" stop-color="#087CFA"/>
</linearGradient>
<clipPath id="clip0_624_37">
<rect width="442" height="48" fill="white" transform="translate(0.5)"/>
</clipPath>
<clipPath id="clip1_624_37">
<rect width="48" height="48" fill="white" transform="translate(57)"/>
</clipPath>
<clipPath id="clip2_624_37">
<rect width="48" height="48" fill="white" transform="translate(113.25)"/>
</clipPath>
<clipPath id="clip3_624_37">
<rect width="48" height="48" fill="white" transform="translate(169.5)"/>
</clipPath>
<clipPath id="clip4_624_37">
<rect width="48" height="48" fill="white" transform="translate(225.75)"/>
</clipPath>
<clipPath id="clip5_624_37">
<rect width="48" height="48" fill="white" transform="translate(282)"/>
</clipPath>
<clipPath id="clip6_624_37">
<rect width="48" height="48" fill="white" transform="translate(338.25)"/>
</clipPath>
<clipPath id="clip7_624_37">
<rect width="48" height="48" fill="white" transform="translate(394.5)"/>
</clipPath>
<clipPath id="clip8_624_37">
<rect width="48" height="48" fill="white" transform="translate(0.5)"/>
</clipPath>
</defs>
</svg>
